<svg xmlns="http://www.w3.org/2000/svg" xmlns:xlink="http://www.w3.org/1999/xlink" width="500" zoomAndPan="magnify" viewBox="0 0 375 374.999991" height="500" preserveAspectRatio="xMidYMid meet" version="1.0"><defs><g/><clipPath id="ae533220b6"><path d="M 153.4375 132.703125 L 221.6875 132.703125 L 221.6875 200.953125 L 153.4375 200.953125 Z M 153.4375 132.703125 " clip-rule="nonzero"/></clipPath></defs><rect x="-37.5" width="450" fill="#ffffff" y="-37.499999" height="449.999989" fill-opacity="1"/><rect x="-37.5" width="450" fill="#ffffff" y="-37.499999" height="449.999989" fill-opacity="1"/><g clip-path="url(#ae533220b6)"><path fill="#0e172a" d="M 187.5 132.703125 C 168.71875 132.703125 153.4375 147.980469 153.4375 166.761719 C 153.4375 185.542969 168.71875 200.824219 187.5 200.824219 C 206.28125 200.824219 221.558594 185.542969 221.558594 166.761719 C 221.558594 147.980469 206.28125 132.703125 187.5 132.703125 Z M 187.5 198.738281 C 169.867188 198.738281 155.523438 184.394531 155.523438 166.761719 C 155.523438 149.132812 169.867188 134.785156 187.5 134.785156 C 205.128906 134.785156 219.476562 149.132812 219.476562 166.761719 C 219.476562 184.394531 205.128906 198.738281 187.5 198.738281 Z M 207.355469 156.597656 C 207.355469 156.597656 206.050781 156.542969 206.050781 156.542969 L 207.882812 152.753906 C 208.03125 152.433594 208.003906 152.054688 207.8125 151.757812 C 207.621094 151.457031 207.289062 151.277344 206.933594 151.277344 C 203.566406 151.269531 200.199219 151.332031 196.816406 151.257812 C 195.203125 151.238281 194.582031 152.128906 194.210938 152.921875 C 192.425781 156.722656 189.582031 162.5625 187.773438 166.355469 C 187.773438 166.355469 187.472656 166.992188 187.472656 166.992188 C 187.4375 166.917969 187.410156 166.839844 187.378906 166.765625 C 187.027344 165.859375 186.335938 165.398438 185.285156 165.410156 C 183.136719 165.429688 180.988281 165.425781 178.84375 165.425781 C 178.257812 165.4375 175.394531 165.382812 174.832031 165.5 C 174.191406 165.539062 173.71875 166.234375 173.925781 166.847656 C 174.015625 167.144531 174.058594 167.367188 174.1875 167.652344 C 174.1875 167.652344 176.089844 171.652344 176.089844 171.652344 C 177.566406 174.746094 179.039062 177.839844 180.492188 180.941406 C 181.042969 182.117188 181.992188 182.222656 182.648438 182.242188 C 185.679688 182.230469 188.933594 182.222656 192.183594 182.265625 C 193.28125 182.28125 194.039062 181.820312 194.507812 180.8125 C 196.710938 176.128906 198.996094 171.527344 201.125 166.765625 C 201.777344 165.304688 202.21875 165.007812 203.382812 165.234375 C 204.796875 165.5 205.535156 164.011719 205.964844 162.933594 C 205.964844 162.933594 206.109375 162.617188 206.109375 162.617188 C 206.433594 161.914062 206.222656 161.417969 206.070312 161.183594 C 207.230469 160.914062 207.386719 159.691406 207.945312 158.722656 C 207.945312 158.722656 208.246094 158.09375 208.246094 158.09375 C 208.582031 157.449219 208.082031 156.609375 207.355469 156.597656 Z M 205.429688 159.125 C 205.03125 159.132812 204.527344 159.136719 204.125 159.136719 C 202.289062 159.152344 201.84375 159.933594 201.625 161.457031 C 201.519531 162.066406 202.039062 162.664062 202.65625 162.648438 C 202.960938 162.660156 203.492188 162.644531 203.800781 162.652344 C 203.71875 162.824219 203.632812 162.988281 203.542969 163.148438 C 201.007812 162.753906 199.9375 164.316406 199.222656 165.914062 C 197.839844 169.007812 196.347656 172.125 194.902344 175.136719 C 194.085938 176.78125 193.332031 178.539062 192.484375 180.152344 C 190.613281 180.210938 188.644531 180.121094 186.796875 180.148438 C 185.375 180.148438 183.980469 180.152344 182.625 180.160156 C 182.425781 180.140625 182.449219 180.203125 182.382812 180.058594 C 180.445312 175.941406 178.394531 171.632812 176.433594 167.511719 C 179.347656 167.511719 182.394531 167.519531 185.296875 167.496094 C 185.363281 167.507812 185.417969 167.480469 185.433594 167.519531 C 185.726562 168.273438 186.117188 168.980469 186.472656 169.734375 C 186.796875 170.460938 187.890625 170.535156 188.296875 169.84375 C 188.496094 169.519531 188.695312 169.269531 188.851562 168.941406 C 190.980469 164.453125 193.980469 158.320312 196.097656 153.808594 C 196.304688 153.371094 196.359375 153.335938 196.769531 153.34375 C 199.644531 153.410156 202.472656 153.371094 205.3125 153.367188 C 205.3125 153.367188 203.511719 157.085938 203.511719 157.085938 C 203.191406 157.730469 203.699219 158.546875 204.414062 158.558594 C 204.414062 158.558594 205.683594 158.613281 205.683594 158.613281 C 205.597656 158.789062 205.515625 158.957031 205.429688 159.125 Z M 182.582031 159.113281 C 184.457031 159.113281 186.332031 159.113281 188.210938 159.113281 C 189.109375 159.113281 189.5 158.734375 189.667969 158.417969 C 190.0625 157.671875 190.433594 156.828125 190.804688 156.042969 C 191.121094 155.410156 190.648438 154.59375 189.9375 154.558594 C 189.527344 154.53125 189.109375 154.476562 188.75 154.476562 C 186.664062 154.472656 184.570312 154.484375 182.484375 154.503906 C 182.234375 153.894531 181.839844 153.273438 181.605469 152.675781 C 181.046875 151.242188 179.792969 151.253906 179.367188 151.257812 C 176.394531 151.285156 173.144531 151.28125 170.15625 151.285156 C 169.835938 151.285156 169.457031 151.335938 169.082031 151.363281 C 168.386719 151.402344 167.910156 152.203125 168.214844 152.828125 C 168.214844 152.828125 168.566406 153.613281 168.566406 153.613281 C 168.777344 154.160156 169.273438 154.660156 168.394531 154.515625 C 168.394531 154.515625 167.6875 154.511719 167.6875 154.511719 C 166.949219 154.488281 166.410156 155.339844 166.746094 156 C 167.113281 156.777344 167.445312 157.574219 167.847656 158.273438 C 168.171875 158.835938 168.898438 159.097656 169.4375 159.097656 C 173.816406 159.109375 178.199219 159.113281 182.582031 159.113281 Z M 169.59375 156.59375 C 170.003906 156.582031 170.765625 156.5625 171.171875 155.925781 C 171.71875 154.855469 171.03125 154.21875 170.742188 153.367188 C 173.65625 153.371094 176.722656 153.359375 179.625 153.351562 C 180.339844 154.710938 180.683594 156.683594 182.621094 156.59375 C 184.4375 156.566406 186.253906 156.5625 188.070312 156.5625 C 188.070312 156.5625 188.257812 156.5625 188.257812 156.5625 C 188.183594 156.71875 188.109375 156.875 188.035156 157.027344 C 181.867188 157.03125 175.699219 157.03125 169.527344 157.003906 C 169.433594 156.769531 169.171875 156.535156 169.59375 156.59375 Z M 184.90625 164.566406 C 187.261719 164.570312 187.679688 164.328125 188.578125 162.195312 C 188.765625 161.761719 189.046875 161.097656 188.644531 160.492188 C 188.238281 159.875 187.527344 159.875 186.957031 159.875 C 184.964844 159.871094 182.972656 159.871094 180.984375 159.871094 C 177.949219 159.882812 174.714844 159.875 171.6875 159.886719 C 170.691406 159.925781 169.503906 159.632812 168.957031 160.484375 C 168.523438 161.140625 168.8125 161.777344 169.292969 162.839844 C 169.292969 162.839844 169.480469 163.253906 169.480469 163.253906 C 170.078125 164.550781 171.148438 164.566406 171.640625 164.570312 C 175.988281 164.546875 180.542969 164.558594 184.90625 164.566406 Z M 171.628906 162.484375 C 171.535156 162.488281 171.46875 162.472656 171.421875 162.480469 C 171.371094 162.421875 171.238281 162.046875 171.195312 161.980469 C 171.3125 161.949219 171.519531 161.980469 171.699219 161.96875 C 176.574219 161.960938 181.539062 161.957031 186.410156 161.957031 C 186.304688 162.191406 186.21875 162.375 186.175781 162.421875 C 186.035156 162.480469 185.460938 162.480469 184.90625 162.480469 C 180.535156 162.476562 175.988281 162.460938 171.628906 162.484375 Z M 171.628906 162.484375 " fill-opacity="1" fill-rule="nonzero"/></g><g fill="#0e172a" fill-opacity="1"><g transform="translate(160.395864, 221.183378)"><g><path d="M 0.34375 -11.3125 L 0.34375 -12.671875 L 3.921875 -12.671875 L 3.921875 -11.3125 L 2.75 -11.3125 L 5.796875 -1.53125 L 8.84375 -11.3125 L 7.6875 -11.3125 L 7.6875 -12.671875 L 11.265625 -12.671875 L 11.265625 -11.3125 L 10.40625 -11.3125 L 6.875 0 L 4.734375 0 L 1.203125 -11.3125 Z M 0.34375 -11.3125 "/></g></g></g><g fill="#0e172a" fill-opacity="1"><g transform="translate(171.996991, 221.183378)"><g><path d="M 1.6875 -7.015625 L 6.90625 -7.015625 L 6.90625 -5.65625 L 1.6875 -5.65625 Z M 1.6875 -7.015625 "/></g></g></g><g fill="#0e172a" fill-opacity="1"><g transform="translate(180.592293, 221.183378)"><g><path d="M 1.34375 -12.671875 L 8.546875 -12.671875 L 10.296875 -10.8125 L 10.296875 -1.859375 L 8.546875 0 L 1.34375 0 L 1.34375 -1.34375 L 2.53125 -1.34375 L 2.53125 -11.3125 L 1.34375 -11.3125 Z M 4.09375 -1.453125 L 7.875 -1.453125 L 8.75 -2.34375 L 8.75 -10.3125 L 7.890625 -11.21875 L 4.09375 -11.21875 Z M 4.09375 -1.453125 "/></g></g></g><g fill="#0e172a" fill-opacity="1"><g transform="translate(192.244083, 221.183378)"><g><path d="M 1.34375 -12.671875 L 9.390625 -12.671875 L 9.390625 -9.359375 L 8.046875 -9.359375 L 8.046875 -11.3125 L 4.09375 -11.3125 L 4.09375 -7.015625 L 8.046875 -7.015625 L 8.046875 -5.65625 L 4.09375 -5.65625 L 4.09375 -1.34375 L 8.046875 -1.34375 L 8.046875 -3.3125 L 9.390625 -3.3125 L 9.390625 0 L 1.34375 0 L 1.34375 -1.34375 L 2.53125 -1.34375 L 2.53125 -11.3125 L 1.34375 -11.3125 Z M 1.34375 -12.671875 "/></g></g></g><g fill="#0e172a" fill-opacity="1"><g transform="translate(202.983996, 221.183378)"><g><path d="M 0.34375 -11.3125 L 0.34375 -12.671875 L 3.921875 -12.671875 L 3.921875 -11.3125 L 2.75 -11.3125 L 5.796875 -1.53125 L 8.84375 -11.3125 L 7.6875 -11.3125 L 7.6875 -12.671875 L 11.265625 -12.671875 L 11.265625 -11.3125 L 10.40625 -11.3125 L 6.875 0 L 4.734375 0 L 1.203125 -11.3125 Z M 0.34375 -11.3125 "/></g></g></g></svg>